<svg id="Layer_1" data-name="Layer 1" xmlns="http://www.w3.org/2000/svg" viewBox="0 0 495 511.04"><title>Amazon</title><path d="M294.37,149.85C238.82,151.9,101,167.53,101,283.88c0,124.91,157.76,130,209.32,49.28,7.42,11.64,40.38,42.78,51.68,53.39l64.79-63.88S390,293.81,390,262.44V94.64C390,65.78,362,.76,261.86.76c-100.38,0-153.65,62.74-153.65,119l83.84,7.75C210.64,71,253.88,71,253.88,71c46.42-.12,40.49,34,40.49,78.82Zm0,99c0,91.26-96.05,77.57-96.05,19.62,0-53.84,57.61-64.67,96.05-65.93ZM449.51,435.37c-8.78,11.41-79.85,76.43-199,76.43S40,430.24,12.05,396.59c-7.76-8.79,1.14-12.89,6.27-9.47,83.61,50.76,214.23,134.37,424.92,34.56C451.79,417.46,458.41,424,449.51,435.37Zm45.4,2.51c-7.42,18-18.25,30.57-24.18,35.36-6.28,5.13-10.84,3.08-7.42-4.33s22-53.05,14.49-62.74c-7.42-9.47-42.21-4.91-54.76-3.65-12.32,1.14-14.82,2.28-16-.34-2.62-6.51,24.76-17.69,42.78-20,17.91-2,46.77-.91,52.47,6.51,4.22,5.81,0,30.91-7.41,49.16Z" transform="translate(-9 -0.76)"/></svg>