<svg id="Layer_1" data-name="Layer 1" xmlns="http://www.w3.org/2000/svg" viewBox="0 0 512 499.36"><title>GitHub</title><path d="M256.21,5.89c-141.36,0-256,114.61-256,256C.21,375,73.56,471,175.28,504.81c12.79,2.37,17.49-5.55,17.49-12.32,0-6.1-.23-26.27-.35-47.66-71.21,15.49-86.24-30.2-86.24-30.2C94.53,385,77.75,377.17,77.75,377.17c-23.23-15.89,1.75-15.56,1.75-15.56,25.71,1.8,39.25,26.38,39.25,26.38,22.83,39.14,59.88,27.82,74.49,21.28,2.3-16.54,8.93-27.84,16.26-34.23-56.86-6.47-116.64-28.43-116.64-126.52,0-28,10-50.79,26.38-68.71-2.66-6.45-11.42-32.49,2.48-67.75,0,0,21.5-6.88,70.41,26.24a242.68,242.68,0,0,1,128.21,0c48.87-33.12,70.33-26.24,70.33-26.24,13.94,35.26,5.17,61.3,2.52,67.75,16.41,17.92,26.34,40.76,26.34,68.71,0,98.33-59.89,120-116.89,126.31,9.18,7.95,17.36,23.53,17.36,47.41,0,34.25-.29,61.82-.29,70.25,0,6.82,4.6,14.8,17.58,12.29C439,470.89,512.21,375,512.21,261.89,512.21,120.5,397.59,5.89,256.21,5.89Z" transform="translate(-0.21 -5.89)" style="fill:#221e1b;fill-rule:evenodd"/><path d="M97.17,373.45c-.56,1.28-2.56,1.66-4.38.78s-2.9-2.57-2.3-3.84,2.55-1.67,4.41-.8,2.91,2.59,2.27,3.86ZM94,371.12" transform="translate(-0.21 -5.89)" style="fill:#221e1b"/><path d="M107.54,385c-1.22,1.13-3.61.6-5.23-1.19s-2-4.17-.74-5.32,3.57-.6,5.24,1.19,2,4.17.73,5.32Zm-2.44-2.62" transform="translate(-0.21 -5.89)" style="fill:#221e1b"/><path d="M117.64,399.76c-1.57,1.09-4.14.07-5.72-2.21s-1.57-5,0-6.1,4.12-.11,5.72,2.15,1.57,5,0,6.16Zm0,0" transform="translate(-0.21 -5.89)" style="fill:#221e1b"/><path d="M131.46,414c-1.4,1.54-4.39,1.13-6.57-1s-2.86-5-1.46-6.54,4.43-1.11,6.63,1,2.9,5,1.4,6.55Zm0,0" transform="translate(-0.21 -5.89)" style="fill:#221e1b"/><path d="M150.54,422.28c-.62,2-3.5,2.91-6.4,2.06s-4.79-3.23-4.2-5.25,3.49-3,6.41-2.06,4.79,3.21,4.19,5.25Zm0,0" transform="translate(-0.21 -5.89)" style="fill:#221e1b"/><path d="M171.49,423.81c.07,2.11-2.39,3.86-5.43,3.9s-5.54-1.64-5.57-3.72,2.4-3.86,5.46-3.92,5.54,1.64,5.54,3.74Zm0,0" transform="translate(-0.21 -5.89)" style="fill:#221e1b"/><path d="M191,420.49c.36,2.06-1.75,4.18-4.78,4.74s-5.72-.73-6.1-2.77,1.79-4.23,4.76-4.77,5.73.71,6.12,2.8Zm0,0" transform="translate(-0.21 -5.89)" style="fill:#221e1b"/></svg>