<svg id="Layer_1" data-name="Layer 1" xmlns="http://www.w3.org/2000/svg" viewBox="0 0 512 511.46"><title>Kyash</title><rect x="118.66" y="94.84" width="308.66" height="308.66" style="fill:#fff"/><path d="M256,.54C114.61.54,0,115,0,256.27S114.61,512,256,512,512,397.51,512,256.27,397.38.54,256,.54ZM319.86,144.4a37.73,37.73,0,1,1-37.73,37.72A37.72,37.72,0,0,1,319.86,144.4ZM240.23,365.69h-104V146.28h104Zm158.43-10-13.38,10H308.07l-52.32-70.05a16.58,16.58,0,0,1,3.35-23.15l49.69-37.12a16.6,16.6,0,0,1,23.15,3.35L402,332.54A16.59,16.59,0,0,1,398.66,355.69Z" transform="translate(0 -0.54)" style="fill:#2ad1ff;fill-rule:evenodd"/></svg>