<svg id="Layer_1" data-name="Layer 1" xmlns="http://www.w3.org/2000/svg" viewBox="0 0 511.36 415.51"><title>Twitter</title><path d="M160.81,466c193,0,298.52-159.87,298.52-298.51,0-4.54,0-9.07-.31-13.57a213.44,213.44,0,0,0,52.34-54.3,209.22,209.22,0,0,1-60.26,16.5,105.24,105.24,0,0,0,46.13-58,210.19,210.19,0,0,1-66.62,25.46,105,105,0,0,0-178.79,95.69A297.88,297.88,0,0,1,35.59,69.63,105,105,0,0,0,68.07,209.68a104,104,0,0,1-47.62-13.13v1.33a105,105,0,0,0,84.18,102.85,104.79,104.79,0,0,1-47.38,1.8,105,105,0,0,0,98,72.86A210.6,210.6,0,0,1,25,420.39a215,215,0,0,1-25-1.52,297.09,297.09,0,0,0,160.81,47.05" transform="translate(0 -50.49)" style="fill:#1da1f2"/></svg>